<svg width="40" height="42" viewBox="0 0 40 42" fill="none" xmlns="http://www.w3.org/2000/svg">
<path d="M8.87167 30.3745C10.3958 31.7928 12.1869 32.7801 13.998 33.5413C15.8959 34.3562 17.9006 34.9987 19.9452 35.189C22.6713 35.4428 26.6129 34.898 27.3461 31.7751C28.0594 28.8783 25.3922 26.3962 22.9196 25.3455C20.2731 24.1874 17.1995 23.7189 14.3802 24.0035C12.8569 24.1353 11.4006 24.5468 10.2186 25.4852C9.03651 26.4237 8.49614 27.8778 8.5504 29.3417C8.52413 30.1598 9.85368 30.1468 9.82655 29.4149C9.76336 23.8929 18.0421 25.0738 21.4234 26.2092C22.3991 26.5735 23.3748 26.9379 24.1034 27.5071C25.0926 28.2374 25.9886 29.5061 26.0627 30.7439C26.3315 33.413 22.7374 34.1725 20.6928 33.9822C16.7774 33.7089 12.5607 32.1767 9.54598 29.4799C9.21836 29.0391 8.22998 29.8589 8.87167 30.3745Z" fill="#EDF0EF"/>
<path d="M9.67099 29.6859C12.6302 29.3689 15.65 29.9235 18.6363 30.3383C18.9503 30.4131 19.3042 30.0358 19.2906 29.6699C19.277 29.304 19.0698 29.0568 18.6155 29.0145C15.5423 28.5461 12.3822 28.024 9.36966 28.4272C9.00225 28.4386 8.82217 28.9232 8.88913 29.2029C8.98957 29.6225 9.30358 29.6973 9.67099 29.6859Z" fill="#EDF0EF"/>
<path d="M10.1644 20.4148C12.385 19.1607 14.5186 17.8528 16.5317 16.3511C18.7387 14.7305 21.4207 12.9259 22.7441 10.4013C23.1919 9.48433 23.4656 8.45984 23.0904 7.51191C22.5947 6.37015 21.3566 5.84406 20.2391 5.51179C18.4926 5.02967 16.7596 4.91403 15.1408 5.58506C13.4351 6.20235 12.0039 7.34736 10.7802 8.73994C8.2795 11.6114 6.58263 16.2924 8.83934 19.835C9.28796 20.4702 10.4318 19.9832 9.94964 19.2079C8.08809 16.3869 9.31723 12.8493 11.0956 10.3671C12.9809 7.7122 15.9439 5.84241 19.3164 6.61282C20.1729 6.78384 21.5179 7.13729 21.9466 7.9989C22.2547 8.66669 21.9139 9.41103 21.5396 10.0153C20.2026 12.1734 17.9956 13.794 15.8955 15.2419C13.8824 16.7436 11.7488 18.0515 9.52818 19.3056C8.8058 19.6949 9.38855 20.8904 10.1644 20.4148Z" fill="#EDF0EF"/>
<path d="M9.9386 19.2171C11.4715 16.9381 13.3864 15.0144 15.2142 13.0369C15.4619 12.8315 15.5019 12.3783 15.2941 12.1306C15.0864 11.8828 14.6308 11.8405 14.3831 12.0459C12.5889 14.1635 10.4798 16.2062 8.94685 18.4852C8.46492 19.2628 9.51021 19.9083 9.9386 19.2171Z" fill="#EDF0EF"/>
<path d="M23.9515 21.1469C27.1278 22.0357 30.8122 22.8806 34.0945 22.0456C36.1134 21.5036 38.2255 20.4229 39.5216 18.7187C40.0895 17.996 40.3965 17.1122 40.1955 16.2723C39.874 15.2387 39.0244 14.4752 38.1015 14.0243C35.6471 12.7465 32.7723 13.1176 30.2925 14.2097C27.6722 15.3344 25.1127 17.3316 23.7903 19.8545C23.4497 20.5983 24.4931 21.2429 24.8337 20.4991C25.9224 18.5475 27.7066 17.0256 29.5914 15.9237C31.6166 14.7892 34.0765 13.9233 36.3969 14.6412C37.828 15.0482 39.6539 16.1762 38.6385 17.8153C37.6431 19.2281 35.7783 20.1038 34.2141 20.6881C30.9653 21.663 27.5082 20.8393 24.3319 19.9505C23.5295 19.6933 23.149 20.8897 23.9515 21.1469Z" fill="#EDF0EF"/>
<path d="M25.1286 20.8114C27.3613 19.9244 29.574 19.2636 31.8067 18.3765C32.1409 18.2252 32.1808 17.7727 32.1138 17.4927C31.9598 17.159 31.5585 17.0304 31.2243 17.1817C28.9916 18.0688 26.7789 18.7295 24.5462 19.6166C24.212 19.768 24.1722 20.2205 24.2392 20.5005C24.4801 20.8879 24.8479 20.8765 25.1286 20.8114Z" fill="#EDF0EF"/>
</svg>
